<svg width="73" height="75" viewBox="0 0 73 75" fill="none" xmlns="http://www.w3.org/2000/svg">
<path d="M56.575 20.122C56.575 9.05488 47.5413 0 36.5 0C25.4588 0 16.425 9.05488 16.425 20.122C16.425 31.189 25.4588 40.2439 36.5 40.2439C47.5413 40.2439 56.575 31.189 56.575 20.122Z" fill="black"/>
<path d="M44.4388 44.4512C41.8838 45.2744 39.2375 45.7317 36.5 45.7317C33.7625 45.7317 31.1163 45.2744 28.5613 44.4512C20.5312 41.7988 11.5888 43.9939 6.29625 50.4878C2.3725 55.3354 0 61.5549 0 68.2317C0 71.9817 3.01125 75 6.7525 75H66.2475C69.9888 75 73 71.9817 73 68.2317C73 61.5549 70.6275 55.3354 66.7038 50.4878C61.32 43.9939 52.4688 41.7988 44.4388 44.4512Z" fill="black"/>
</svg>
